<svg width="29" height="29" viewBox="0 0 29 29" fill="none" xmlns="http://www.w3.org/2000/svg">
<g id="&#240;&#159;&#166;&#134; icon &#34;cart alt&#34;">
<path id="Vector" d="M26.65 25.975C26.65 27.0934 25.7433 28 24.625 28C23.5066 28 22.6 27.0934 22.6 25.975C22.6 24.8567 23.5066 23.95 24.625 23.95C25.7433 23.95 26.65 24.8567 26.65 25.975Z" stroke="#951212" stroke-width="2" stroke-linecap="round" stroke-linejoin="round"/>
<path id="Vector_2" d="M13.15 25.975C13.15 27.0934 12.2433 28 11.125 28C10.0066 28 9.09998 27.0934 9.09998 25.975C9.09998 24.8567 10.0066 23.95 11.125 23.95C12.2433 23.95 13.15 24.8567 13.15 25.975Z" stroke="#951212" stroke-width="2" stroke-linecap="round" stroke-linejoin="round"/>
<path id="Vector_3" d="M20.5751 3.70001H28.0001L25.3001 18.55H19.2251M20.5751 3.70001L19.2251 18.55M20.5751 3.70001H12.8126M19.2251 18.55H13.8251M12.8126 3.70001H5.05005L7.75005 18.55H13.8251M12.8126 3.70001L13.8251 18.55" stroke="#951212" stroke-width="2" stroke-linecap="round" stroke-linejoin="round"/>
<path id="Vector_4" d="M5.05 3.7C4.825 2.8 3.7 1 1 1" stroke="#951212" stroke-width="2" stroke-linecap="round" stroke-linejoin="round"/>
<path id="Vector_5" d="M25.3001 18.55H7.75005H5.36159C2.95277 18.55 1.67505 19.6047 1.67505 21.25C1.67505 22.8954 2.95277 23.9501 5.36159 23.9501H24.6251" stroke="#951212" stroke-width="2" stroke-linecap="round" stroke-linejoin="round"/>
</g>
</svg>
